<mxfile host="app.diagrams.net" agent="Mozilla/5.0 (Macintosh; Intel Mac OS X 10_15_7) AppleWebKit/537.36 (KHTML, like Gecko) Chrome/133.0.0.0 Safari/537.36" version="26.1.0">
  <diagram name="Page-1" id="3FCX_0pGCppc68yFw43s">
    <mxGraphModel dx="954" dy="639" grid="1" gridSize="10" guides="1" tooltips="1" connect="1" arrows="1" fold="1" page="1" pageScale="1" pageWidth="827" pageHeight="1169" math="0" shadow="0">
      <root>
        <mxCell id="0" />
        <mxCell id="1" parent="0" />
        <mxCell id="sraQKeebK-J_Rjf461GM-1" value="High Level Architecture" style="text;html=1;align=center;verticalAlign=middle;whiteSpace=wrap;rounded=0;fontStyle=1;fontSize=15;" vertex="1" parent="1">
          <mxGeometry x="90" y="40" width="200" height="30" as="geometry" />
        </mxCell>
        <mxCell id="sraQKeebK-J_Rjf461GM-3" value="" style="rounded=0;whiteSpace=wrap;html=1;dashed=1;strokeColor=#808080;" vertex="1" parent="1">
          <mxGeometry x="120" y="120" width="120" height="400" as="geometry" />
        </mxCell>
        <mxCell id="sraQKeebK-J_Rjf461GM-4" value="Source" style="text;html=1;align=center;verticalAlign=middle;whiteSpace=wrap;rounded=0;fillColor=default;" vertex="1" parent="1">
          <mxGeometry x="150" y="110" width="60" height="30" as="geometry" />
        </mxCell>
        <mxCell id="sraQKeebK-J_Rjf461GM-5" value="" style="rounded=0;whiteSpace=wrap;html=1;" vertex="1" parent="1">
          <mxGeometry x="280" y="120" width="440" height="400" as="geometry" />
        </mxCell>
        <mxCell id="sraQKeebK-J_Rjf461GM-6" value="Data Warehouse" style="text;html=1;align=center;verticalAlign=middle;whiteSpace=wrap;rounded=0;fillColor=default;" vertex="1" parent="1">
          <mxGeometry x="470" y="110" width="100" height="30" as="geometry" />
        </mxCell>
        <mxCell id="sraQKeebK-J_Rjf461GM-7" value="" style="rounded=0;whiteSpace=wrap;html=1;dashed=1;strokeColor=#808080;" vertex="1" parent="1">
          <mxGeometry x="750" y="120" width="120" height="400" as="geometry" />
        </mxCell>
        <mxCell id="sraQKeebK-J_Rjf461GM-8" value="Consume" style="text;html=1;align=center;verticalAlign=middle;whiteSpace=wrap;rounded=0;fillColor=default;" vertex="1" parent="1">
          <mxGeometry x="780" y="100" width="60" height="30" as="geometry" />
        </mxCell>
        <mxCell id="sraQKeebK-J_Rjf461GM-9" value="" style="rounded=0;whiteSpace=wrap;html=1;" vertex="1" parent="1">
          <mxGeometry x="330" y="200" width="120" height="280" as="geometry" />
        </mxCell>
        <mxCell id="sraQKeebK-J_Rjf461GM-10" value="Bronze Layer" style="text;html=1;align=center;verticalAlign=middle;whiteSpace=wrap;rounded=0;fillColor=#ffe6cc;strokeColor=#d79b00;" vertex="1" parent="1">
          <mxGeometry x="330" y="160" width="120" height="30" as="geometry" />
        </mxCell>
        <mxCell id="sraQKeebK-J_Rjf461GM-11" value="Bronze Layer" style="text;html=1;align=center;verticalAlign=middle;whiteSpace=wrap;rounded=0;fillColor=#ffe6cc;strokeColor=#d79b00;" vertex="1" parent="1">
          <mxGeometry x="460" y="160" width="120" height="30" as="geometry" />
        </mxCell>
        <mxCell id="sraQKeebK-J_Rjf461GM-12" value="Bronze Layer" style="text;html=1;align=center;verticalAlign=middle;whiteSpace=wrap;rounded=0;fillColor=#ffe6cc;strokeColor=#d79b00;" vertex="1" parent="1">
          <mxGeometry x="590" y="160" width="120" height="30" as="geometry" />
        </mxCell>
        <mxCell id="sraQKeebK-J_Rjf461GM-14" value="" style="rounded=0;whiteSpace=wrap;html=1;" vertex="1" parent="1">
          <mxGeometry x="460" y="200" width="120" height="280" as="geometry" />
        </mxCell>
        <mxCell id="sraQKeebK-J_Rjf461GM-15" value="" style="rounded=0;whiteSpace=wrap;html=1;" vertex="1" parent="1">
          <mxGeometry x="590" y="200" width="120" height="280" as="geometry" />
        </mxCell>
      </root>
    </mxGraphModel>
  </diagram>
</mxfile>
